<?xml version="1.0" encoding="utf-8"?>
<!-- Svg Vector Icons : http://www.onlinewebfonts.com/icon -->
<!DOCTYPE svg PUBLIC "-//W3C//DTD SVG 1.1//EN" "http://www.w3.org/Graphics/SVG/1.1/DTD/svg11.dtd">
<svg fill="#fff" version="1.1" xmlns="http://www.w3.org/2000/svg" xmlns:xlink="http://www.w3.org/1999/xlink" x="0px" y="0px" viewBox="0 0 1000 1000" enable-background="new 0 0 1000 1000" xml:space="preserve">
<metadata> Svg Vector Icons : http://www.onlinewebfonts.com/icon </metadata>
<g><path d="M971.5,456.4L543.6,28.5C519,3.8,479,3.8,454.4,28.5L355,127.9l74.8,74.8c12-5.7,25.4-9,39.6-9c50.7,0,91.9,41.1,91.9,91.9c0,14.2-3.2,27.6-9,39.6l122.5,122.5c12-5.7,25.4-9,39.6-9c50.7,0,91.9,41.1,91.9,91.9c0,50.7-41.1,91.9-91.9,91.9s-91.9-41.1-91.9-91.9c0-14.2,3.2-27.6,9-39.6L509,368.6c-2.9,1.4-5.9,2.6-9,3.7v255.5c35.7,12.6,61.2,46.6,61.2,86.6c0,50.7-41.1,91.9-91.9,91.9s-91.9-41.1-91.9-91.9c0-40,25.6-74,61.2-86.6V372.3c-35.7-12.6-61.2-46.6-61.2-86.6c0-14.2,3.2-27.6,9-39.6l-74.8-74.8L28.5,454.4c-24.6,24.7-24.6,64.6,0,89.3l427.9,427.9c24.6,24.6,64.6,24.6,89.3,0l425.9-425.9C996.2,521,996.2,481,971.5,456.4L971.5,456.4z"/></g>
</svg>
