<?xml version="1.0" encoding="UTF-8"?>
<svg width="253px" height="253px" viewBox="0 0 253 253" version="1.1" xmlns="http://www.w3.org/2000/svg" xmlns:xlink="http://www.w3.org/1999/xlink">
    <!-- Generator: Sketch 61 (89581) - https://sketch.com -->
    <title>形状结合</title>
    <desc>Created with Sketch.</desc>
    <g id="页面-1" stroke="none" stroke-width="1" fill="none" fill-rule="evenodd">
        <g id="画板" transform="translate(-6.000000, -6.000000)" fill="#FFFFFF">
            <path d="M259,6 L259,259 L6,259 L6,6 L259,6 Z M65.2825,115.445 C60.5158333,115.445 56.5075,117.2 53.2575,120.71 C50.0941667,124.176667 48.5125,128.488333 48.5125,133.645 C48.5125,139.105 50.3108333,143.546667 53.9075,146.97 C57.2875,150.22 61.2091667,151.845 65.6725,151.845 C69.9191667,151.845 73.6458333,150.198333 76.8525,146.905 C80.3191667,143.395 82.0525,138.953333 82.0525,133.58 C82.0525,128.466667 80.4491667,124.176667 77.2425,120.71 C73.9925,117.2 70.0058333,115.445 65.2825,115.445 Z M103.1775,115.445 C98.4108333,115.445 94.4025,117.2 91.1525,120.71 C87.9891667,124.176667 86.4075,128.488333 86.4075,133.645 C86.4075,139.105 88.2058333,143.546667 91.8025,146.97 C95.1825,150.22 99.1041667,151.845 103.5675,151.845 C107.814167,151.845 111.540833,150.198333 114.7475,146.905 C118.214167,143.395 119.9475,138.953333 119.9475,133.58 C119.9475,128.466667 118.344167,124.176667 115.1375,120.71 C111.8875,117.2 107.900833,115.445 103.1775,115.445 Z M141.7875,115.445 C136.760833,115.445 132.5575,117.221667 129.1775,120.775 C125.840833,124.371667 124.1725,128.661667 124.1725,133.645 C124.1725,138.715 125.8625,143.048333 129.2425,146.645 C132.709167,150.111667 136.869167,151.845 141.7225,151.845 C143.629167,151.845 145.514167,151.541667 147.3775,150.935 C149.107738,150.371667 151.024796,149.453376 153.128673,148.180128 L153.6175,147.88 L153.6175,141.705 C151.710833,143.655 149.825833,145.1175 147.9625,146.0925 C146.099167,147.0675 144.040833,147.555 141.7875,147.555 C138.190833,147.555 135.200833,146.233333 132.8175,143.59 C130.434167,140.816667 129.2425,137.48 129.2425,133.58 C129.2425,129.766667 130.390833,126.473333 132.6875,123.7 C134.984167,121.013333 137.930833,119.67 141.5275,119.67 C142.3075,119.67 143.0875,119.724167 143.8675,119.8325 C144.6475,119.940833 145.405833,120.146667 146.1425,120.45 C148.548775,121.388039 150.897471,122.901857 153.18859,124.991453 L153.6175,125.39 L153.6175,119.28 C151.7975,118.066667 150.2375,117.221667 148.9375,116.745 C146.7275,115.878333 144.344167,115.445 141.7875,115.445 Z M171.6875,115.445 C167.874167,115.445 164.689167,116.398333 162.1325,118.305 C159.619167,120.168333 158.3625,122.551667 158.3625,125.455 C158.3625,128.575 159.879167,131.001667 162.9125,132.735 C164.4725,133.515 167.5925,134.49 172.2725,135.66 C176.215833,136.57 178.6425,137.588333 179.5525,138.715 C180.2025,139.625 180.5275,140.513333 180.5275,141.38 C180.5275,142.983333 179.639167,144.435 177.8625,145.735 C176.129167,146.948333 173.940833,147.555 171.2975,147.555 C170.474167,147.555 169.6725,147.500833 168.8925,147.3925 C168.1125,147.284167 167.310833,147.121667 166.4875,146.905 C163.877304,146.089314 161.305493,144.697849 158.772067,142.730606 L158.2975,142.355 L158.2975,148.01 C160.810833,149.57 163.454167,150.653333 166.2275,151.26 C167.960833,151.65 169.7375,151.845 171.5575,151.845 C175.674167,151.845 179.119167,150.761667 181.8925,148.595 C184.6225,146.385 185.9875,143.828333 185.9875,140.925 C185.9875,137.501667 184.015833,134.945 180.0725,133.255 C178.859167,132.908333 177.655463,132.561667 176.461389,132.215 L174.6775,131.695 C172.900833,131.175 171.1025,130.655 169.2825,130.135 C165.3825,128.878333 163.4325,127.188333 163.4325,125.065 C163.4325,123.461667 164.255833,122.161667 165.9025,121.165 C167.505833,120.168333 169.4125,119.67 171.6225,119.67 C173.8325,119.67 175.934167,120.114167 177.9275,121.0025 C179.754722,121.816806 181.50912,122.895098 183.190694,124.237378 L183.6475,124.61 L183.6475,118.955 C182.6075,118.218333 181.480833,117.600833 180.2675,117.1025 C179.054167,116.604167 177.754167,116.203333 176.3675,115.9 C174.980833,115.596667 173.420833,115.445 171.6875,115.445 Z M203.9275,115.445 C200.114167,115.445 196.929167,116.398333 194.3725,118.305 C191.859167,120.168333 190.6025,122.551667 190.6025,125.455 C190.6025,128.575 192.119167,131.001667 195.1525,132.735 C196.7125,133.515 199.8325,134.49 204.5125,135.66 C208.455833,136.57 210.8825,137.588333 211.7925,138.715 C212.4425,139.625 212.7675,140.513333 212.7675,141.38 C212.7675,142.983333 211.879167,144.435 210.1025,145.735 C208.369167,146.948333 206.180833,147.555 203.5375,147.555 C202.714167,147.555 201.9125,147.500833 201.1325,147.3925 C200.3525,147.284167 199.550833,147.121667 198.7275,146.905 C196.117304,146.089314 193.545493,144.697849 191.012067,142.730606 L190.5375,142.355 L190.5375,148.01 C193.050833,149.57 195.694167,150.653333 198.4675,151.26 C200.200833,151.65 201.9775,151.845 203.7975,151.845 C207.914167,151.845 211.359167,150.761667 214.1325,148.595 C216.8625,146.385 218.2275,143.828333 218.2275,140.925 C218.2275,137.501667 216.255833,134.945 212.3125,133.255 C211.099167,132.908333 209.895463,132.561667 208.701389,132.215 L206.9175,131.695 C205.140833,131.175 203.3425,130.655 201.5225,130.135 C197.6225,128.878333 195.6725,127.188333 195.6725,125.065 C195.6725,123.461667 196.495833,122.161667 198.1425,121.165 C199.745833,120.168333 201.6525,119.67 203.8625,119.67 C206.0725,119.67 208.174167,120.114167 210.1675,121.0025 C211.994722,121.816806 213.74912,122.895098 215.430694,124.237378 L215.8875,124.61 L215.8875,118.955 C214.8475,118.218333 213.720833,117.600833 212.5075,117.1025 C211.294167,116.604167 209.994167,116.203333 208.6075,115.9 C207.220833,115.596667 205.660833,115.445 203.9275,115.445 Z M65.2825,119.67 C68.3158333,119.67 70.9808333,120.883333 73.2775,123.31 C75.7908333,125.953333 77.0475,129.376667 77.0475,133.58 C77.0475,137.653333 75.8775,141.011667 73.5375,143.655 C71.1108333,146.255 68.3375,147.555 65.2175,147.555 C62.0975,147.555 59.4325,146.32 57.2225,143.85 C54.8391667,141.12 53.6475,137.718333 53.6475,133.645 C53.6475,129.615 54.8608333,126.213333 57.2875,123.44 C59.4975,120.926667 62.1625,119.67 65.2825,119.67 Z M103.1775,119.67 C106.210833,119.67 108.875833,120.883333 111.1725,123.31 C113.685833,125.953333 114.9425,129.376667 114.9425,133.58 C114.9425,137.653333 113.7725,141.011667 111.4325,143.655 C109.005833,146.255 106.2325,147.555 103.1125,147.555 C99.9925,147.555 97.3275,146.32 95.1175,143.85 C92.7341667,141.12 91.5425,137.718333 91.5425,133.645 C91.5425,129.615 92.7558333,126.213333 95.1825,123.44 C97.3925,120.926667 100.0575,119.67 103.1775,119.67 Z" id="形状结合"></path>
        </g>
    </g>
</svg>